<svg width="119" height="91" viewBox="0 0 119 91" fill="none" xmlns="http://www.w3.org/2000/svg">
<path d="M109.348 25.8372L102.018 36.3841C105.553 43.1289 107.284 50.6072 107.055 58.149C106.826 65.6909 104.645 73.0606 100.707 79.5979H18.1053C12.9869 71.1039 10.866 61.2584 12.057 51.5207C13.248 41.7831 17.6876 32.6718 24.7175 25.5375C31.7473 18.4033 40.9933 13.6259 51.0848 11.9136C61.1762 10.2013 71.5758 11.6453 80.7418 16.0315L91.7673 9.01922C80.5421 2.13362 67.2271 -0.951842 53.9523 0.256384C40.6774 1.46461 28.2096 6.89671 18.5433 15.6838C8.87691 24.4709 2.57047 36.1052 0.632701 48.7258C-1.30506 61.3464 1.23781 74.224 7.85458 85.2989C8.89461 87.0222 10.388 88.4551 12.1863 89.4552C13.9846 90.4554 16.0252 90.9879 18.1053 90.9999H100.647C102.748 91.0079 104.813 90.4848 106.634 89.4837C108.455 88.4825 109.967 87.0389 111.017 85.2989C116.508 76.1996 119.264 65.8257 118.98 55.3227C118.696 44.8196 115.384 34.5958 109.408 25.7802L109.348 25.8372ZM51.0029 64.8322C52.1099 65.8923 53.4245 66.7333 54.8715 67.3071C56.3184 67.8809 57.8695 68.1763 59.4359 68.1763C61.0023 68.1763 62.5533 67.8809 64.0003 67.3071C65.4473 66.7333 66.7619 65.8923 67.8689 64.8322L101.601 16.4305L51.0029 48.6983C49.8947 49.7573 49.0155 51.0148 48.4157 52.399C47.8158 53.7832 47.5071 55.2669 47.5071 56.7653C47.5071 58.2637 47.8158 59.7474 48.4157 61.1316C49.0155 62.5158 49.8947 63.7733 51.0029 64.8322Z" fill="#30445D"/>
</svg>
